<?xml version="1.0" encoding="UTF-8" standalone="no"?>
<!-- Created with Inkscape (http://www.inkscape.org/) -->

<svg
   xmlns:dc="http://purl.org/dc/elements/1.1/"
   xmlns:cc="http://creativecommons.org/ns#"
   xmlns:rdf="http://www.w3.org/1999/02/22-rdf-syntax-ns#"
   xmlns:svg="http://www.w3.org/2000/svg"
   xmlns="http://www.w3.org/2000/svg"
   xmlns:sodipodi="http://sodipodi.sourceforge.net/DTD/sodipodi-0.dtd"
   xmlns:inkscape="http://www.inkscape.org/namespaces/inkscape"
   version="1.1"
   id="svg64"
   width="1024"
   height="1024"
   viewBox="0 0 1024 1024"
   sodipodi:docname="ampersand.svg"
   inkscape:version="0.92.1 r15371">
  <metadata
     id="metadata70">
    <rdf:RDF>
      <cc:Work
         rdf:about="">
        <dc:format>image/svg+xml</dc:format>
        <dc:type
           rdf:resource="http://purl.org/dc/dcmitype/StillImage" />
        <dc:title></dc:title>
      </cc:Work>
    </rdf:RDF>
  </metadata>
  <defs
     id="defs68" />
  <sodipodi:namedview
     pagecolor="#ffffff"
     bordercolor="#666666"
     borderopacity="1"
     objecttolerance="10"
     gridtolerance="10"
     guidetolerance="10"
     inkscape:pageopacity="0"
     inkscape:pageshadow="2"
     inkscape:window-width="2666"
     inkscape:window-height="1600"
     id="namedview66"
     showgrid="false"
     inkscape:zoom="1.2900391"
     inkscape:cx="376.34519"
     inkscape:cy="512"
     inkscape:window-x="0"
     inkscape:window-y="88"
     inkscape:window-maximized="1"
     inkscape:current-layer="svg64" />
  <g
     inkscape:groupmode="layer"
     id="layer1"
     inkscape:label="SVG"
     style="display:inline">
    <path
       style="fill:#000000"
       d="m 766.5,979.98415 c -25.96685,-5.18231 -46.9851,-16.499 -64.77288,-34.87514 -20.10129,-20.76617 -32.17099,-45.339 -36.8083,-74.93841 l -1.30496,-8.3294 -2.74169,3.14019 C 650.82239,876.49188 644.00034,895.09931 644.00034,911 c 0,14.32485 5.6792,32.18669 13.48537,42.41334 1.93286,2.53218 3.51429,4.83365 3.51429,5.11437 0,0.937 -5.1284,-0.7616 -11.24486,-3.72445 -27.83304,-13.48251 -46.96446,-37.44125 -53.34313,-66.80289 -1.74201,-8.01864 -1.87619,-34.16867 -0.27113,-52.84053 2.2064,-25.66724 -2.43243,-46.36131 -13.91696,-62.08437 -5.265,-7.20814 -18.24571,-18.91236 -51.72392,-46.63756 -6.6,-5.46584 -12.49997,-10.38789 -13.11104,-10.9379 -0.61107,-0.55 -2.85111,-2.35001 -4.97786,-4.00001 -2.12676,-1.65 -5.4518,-4.37195 -7.38897,-6.04877 C 503.08496,703.7744 497,698.84348 491.5,694.49363 c -5.5,-4.34986 -10.225,-8.1591 -10.5,-8.46498 -0.275,-0.30588 -2.86809,-2.50904 -5.76243,-4.89592 C 465.18541,672.843 454.72896,657.941 450.23475,645.5 c -1.80585,-4.999 -3.10131,-12.41448 -4.28008,-24.5 -2.22183,-22.77975 -5.74783,-28.44402 -28.77362,-46.2228 -18.99966,-14.6701 -24.60908,-21.49768 -27.771,-33.80185 -1.9597,-7.62587 -1.45896,-21.39701 0.98086,-26.97535 1.2955,-2.96201 1.53682,-3.13938 1.56995,-1.15391 0.16496,9.88769 7.48522,20.98528 18.01946,27.31772 8.69675,5.22786 13.9807,6.67952 30.51968,8.38466 16.92982,1.74544 22.32617,2.92925 28.91069,6.3422 8.8981,4.61215 13.45458,13.40111 16.64649,32.10933 2.37877,13.94228 7.46678,21.65281 15.44282,23.40251 1.65,0.36196 9.75,1.05056 18,1.53022 17.97233,1.04491 27.91341,3.17656 37.4113,8.02202 3.22914,1.64738 20.54638,15.36763 49.09498,38.89737 8.4216,6.94107 8.51028,7.014 21.99675,18.08979 6.32333,5.19304 11.72197,9.7042 11.99697,10.02479 0.275,0.32059 5.45,4.61868 11.5,9.55131 14.0003,11.41459 14.24715,11.61775 16.83421,13.85459 13.58743,11.74802 24.13606,18.38754 33.76593,21.25294 7.21237,2.14606 20.96075,2.10992 27.41601,-0.0721 21.50675,-7.26967 35.35297,-31.64372 30.42224,-53.55346 -0.55699,-2.475 -1.26856,-5.34185 -1.58127,-6.37078 -0.46785,-1.53941 0.20296,-1.3373 3.78716,1.14101 24.94766,17.25019 39.38839,55.11454 33.28677,87.27965 -3.07096,16.1888 -10.0008,29.7816 -19.56886,38.38411 -2.6742,2.40434 -4.86219,4.56749 -4.86219,4.807 0,0.2395 4.41299,1.01954 9.80664,1.73342 26.08011,3.45183 59.48577,-6.6003 76.69336,-23.07788 21.22006,-20.31983 23.17549,-51.26244 4.7625,-75.36154 -7.50579,-9.82365 -23.37388,-20.85108 -34.7625,-24.15798 -4.97936,-1.44585 11.4415,-1.73224 23,-0.40114 32.72182,3.76831 60.09252,16.52323 81.51866,37.98821 15.95988,15.98882 24.79094,31.2261 30.15842,52.03592 2.93529,11.38019 3.22791,35.77617 0.56076,46.75087 -5.51739,22.70277 -13.96513,37.6524 -30.66549,54.26752 -15.58785,15.50828 -31.43979,25.2392 -52.12921,32.00019 -16.88729,5.51851 -22.72334,6.37082 -44.018,6.42844 l -19.57485,0.053 4.07485,3.24928 c 9.45422,7.53876 28.99937,15.64343 45.20302,18.74407 11.51167,2.2028 32.50798,2.01912 39.6806,-0.34714 l 5.61921,-1.85379 -1.93167,2.71278 c -6.42829,9.0277 -20.66125,20.17145 -35.9963,28.18344 -16.1074,8.41552 -30.67988,13.42068 -50.33077,17.28694 -10.91197,2.1469 -15.39839,2.50799 -30,2.41458 -12.12678,-0.0776 -19.81245,-0.63736 -26.16923,-1.90601 z m -481,-14.09644 c -36.79721,-3.08127 -69.01251,-13.07584 -101.57618,-31.51328 -6.41694,-3.63324 -14.76241,-8.88151 -18.54549,-11.66281 -7.18142,-5.27975 -31.40128,-28.99541 -37.405,-36.62633 -8.45445,-10.74585 -13.79604,-16.68973 -16.22255,-18.0517 -5.67849,-3.18725 -11.74723,2.736 -11.74805,11.46641 -5.1e-4,5.47196 2.47564,17.40918 5.90025,28.44442 l 1.06893,3.44443 -4.60677,-4.44443 C 88.877457,893.93204 73.397558,872.62475 63.095749,852.89212 33.578873,796.35391 28.259018,723.25313 48.54875,653 55.146096,630.15671 56,626.66605 56,622.54014 56,617.7832 53.742282,614 50.903458,614 c -5.048516,0 -15.067733,7.75453 -23.256844,18 -1.865648,2.33413 -2.624806,2.83379 -2.279027,1.5 0.285171,-1.1 0.797566,-4.25 1.138655,-7 3.447539,-27.79542 17.661388,-60.9901 37.895392,-88.5 10.898177,-14.81703 30.010557,-34.93905 44.479386,-46.8291 6.06999,-4.98813 6.47213,-5.16128 8.25,-3.55233 2.15863,1.95354 2.54318,9.99198 0.86373,18.05514 -6.23236,29.92211 -6.55049,32.78416 -10.54042,94.82629 l -0.51448,8 4.64847,-5 c 4.85536,-5.22253 7.15714,-7.72484 24.41168,-26.53843 5.775,-6.29681 12.525,-13.65364 15,-16.34852 9.54071,-10.38831 20.41641,-19.20178 37.43537,-30.33694 C 198.68432,523.57043 217,513.38464 217,514.39063 c 0,0.31289 -0.63529,2.2655 -1.41177,4.33913 -0.77647,2.07363 -1.69783,5.34524 -2.04747,7.27024 -0.34965,1.925 -1.95268,10.925 -3.5623,20 -1.60963,9.075 -3.35733,18.75 -3.88378,21.5 -1.58285,8.26817 -2.25688,14.5 -1.56832,14.5 0.3569,0 10.60061,-6.8625 22.7638,-15.25 28.37437,-19.56641 29.78046,-20.3805 38.62415,-22.36235 9.73678,-2.18198 27.96169,-1.10739 26.87795,1.5848 -0.16074,0.39932 -3.44226,4.19804 -7.29226,8.44161 -30.13437,33.21482 -51.05164,74.44684 -57.36924,113.08594 -1.79746,10.99345 -3.26346,29.36082 -2.70444,33.88374 0.27982,2.26395 0.77476,7.49126 1.09988,11.61626 0.76903,9.75732 3.06662,20.37698 7.06404,32.65059 4.3855,13.46521 13.25184,29.41621 21.87231,39.34941 15.73455,18.13063 36.58122,30.423 59.53745,35.10663 8.35606,1.70483 31.83137,1.69558 39,-0.0154 34.10268,-8.1394 67.17973,-31.18602 98.44375,-68.59125 C 461.34129,740.85471 477,718.80684 477,716.92416 c 0,-2.17223 2.8872,-0.32826 15.32725,9.78905 7.24501,5.89227 13.39775,10.97003 13.67275,11.28391 0.275,0.31389 2.75,2.35544 5.5,4.53679 2.75,2.18135 5.225,4.19109 5.5,4.46609 0.275,0.275 3.19852,2.75 6.49672,5.5 18.83155,15.70154 35.60576,30.60349 36.20435,32.16337 0.63008,1.64198 0.24338,2.47501 -8.04781,17.33663 -26.4467,47.40464 -55.02043,82.16713 -91.25082,111.01477 -23.24659,18.50958 -58.60509,36.16726 -88.12793,44.01021 -11.16365,2.9657 -28.87725,6.36787 -38.81821,7.45564 -7.09107,0.77592 -33.58162,2.5235 -35.9563,2.37203 -1.1,-0.0702 -6.5,-0.50438 -12,-0.96494 z M 321,645.63289 c 0,-0.20192 1.73337,-1.5142 3.85192,-2.9162 7.69357,-5.09136 19.63307,-18.8465 22.67204,-26.11979 1.8893,-4.52173 1.48068,-5.21861 -2.2419,-3.82339 -4.25576,1.59506 -13.88738,3.09688 -23.03206,3.59131 -4.5375,0.24533 -8.25,0.31147 -8.25,0.14698 0,-0.1645 2.59262,-2.94867 5.76137,-6.18704 9.91215,-10.12996 17.23771,-27.74298 17.18766,-41.32476 -0.0484,-13.1322 -5.90964,-26.97063 -14.98022,-35.36839 -18.79754,-17.40321 -55.15235,-20.56186 -79.71881,-6.9263 -2.3375,1.29743 -4.25,1.99456 -4.25,1.54919 0,-1.73864 7.91938,-16.09966 12.38862,-22.46556 9.72263,-13.84871 28.37437,-30.20194 41.5348,-36.41636 3.34212,-1.57816 6.07658,-3.10043 6.07658,-3.38281 0,-1.09881 -25.11658,-8.0104 -36.7544,-10.11409 -6.81217,-1.23138 -7.14745,-1.4123 -5.5,-2.96778 4.60728,-4.35007 24.11673,-13.07228 38.0044,-16.99087 15.47867,-4.36751 28.86659,-6.93752 39.75,-7.6306 l 10,-0.63683 -5,-1.36827 c -3.28992,-0.90029 -11.15629,-1.40104 -23,-1.46411 -17.41286,-0.0927 -21.45924,0.3325 -39.5,4.15085 -12.15613,2.57286 -29.05325,8.81092 -38,14.02881 -2.475,1.44346 -5.19673,2.88571 -6.0483,3.20501 -2.55767,0.95901 -15.13623,10.89641 -19.94451,15.7567 l -4.49281,4.54141 6.49281,0.74473 c 12.37549,1.41947 33.2184,5.33032 35.8363,6.72412 0.79942,0.42562 -1.50619,1.40791 -5.69329,2.42558 -13.07379,3.17759 -34.72403,12.69804 -55.1502,24.25168 -13.87894,7.85033 -43.28224,29.17517 -49.80538,36.12151 -1.26797,1.35022 -2.4446,2.29237 -2.61474,2.09366 -0.32543,-0.38006 1.87814,-11.85357 5.51565,-28.71874 0.63553,-2.9466 1.15361,-9.9216 1.15129,-15.5 -0.004,-8.64892 -0.37182,-10.96597 -2.50043,-15.73411 C 136.78054,470.0248 128.50884,462.86411 119,460.08288 c -2.475,-0.72391 -5.80465,-1.71371 -7.39922,-2.19954 -6.92235,-2.10911 -36.088201,-0.88474 -49.85078,2.09271 -2.0625,0.44621 -3.75,0.68483 -3.75,0.53026 0,-0.51441 13.406672,-11.04926 20,-15.71583 7.651005,-5.41517 24.59565,-15.36251 41,-24.06901 4.125,-2.18932 9.525,-5.11467 12,-6.50079 2.475,-1.38611 7.2,-3.9966 10.5,-5.80109 8.71177,-4.76373 19.78555,-13.16306 22.41646,-17.00262 6.01724,-8.78159 0.21776,-22.33844 -16.88225,-39.46385 C 142.34039,347.25233 135.35,341.21189 131.5,338.52991 c -3.85,-2.68197 -7.45,-5.30414 -8,-5.82703 -1.2451,-1.18372 35.00525,-0.0521 45,1.40472 5.91942,0.86282 15.14922,2.62602 24.11187,4.60616 1.94732,0.43023 1.81225,-0.14431 -1.73353,-7.37359 -6.15345,-12.5459 -8.87789,-24.4649 -8.87817,-38.84054 -1.5e-4,-7.80804 2.00351,-21.83664 3.3047,-23.13783 0.24129,-0.2413 1.44515,1.71609 2.67524,4.34974 6.57473,14.07668 24.7663,33.28835 42.63549,45.02629 9.73049,6.39178 21.90701,13.77632 31.3844,19.03329 29.03157,16.1034 45.76264,27.69061 57.33519,39.70788 5.14422,5.34191 10.66481,12.75911 10.66481,14.32873 0,0.52106 0.675,1.50758 1.5,2.19227 1.98398,1.64656 1.93344,1.3208 -1.09941,-7.08698 -4.4111,-12.22859 -10.8529,-22.0126 -22.02545,-33.45295 -7.96131,-8.15214 -10.44557,-10.28352 -19.54073,-16.76504 -5.94302,-4.23519 -6.8336,-5.31626 -8.21537,-9.97258 -3.29695,-11.11008 -3.98742,-17.49168 -3.91916,-36.22245 0.1065,-29.22423 4.78735,-52.15508 14.07099,-68.93191 3.66672,-6.62628 4.77415,-6.7045 4.52067,-0.31931 -0.264,6.65033 2.00312,20.31909 4.76872,28.75122 8.7666,26.72875 28.43165,52.44265 66.43974,86.87621 8.25,7.47412 15.225,13.82206 15.5,14.10655 0.275,0.28448 4.55,4.08893 9.5,8.45433 25.23248,22.25249 48.09247,47.67856 54.826,60.9803 1.55429,3.07043 2.97467,5.58261 3.15638,5.58261 2.48557,0 -12.32483,-28.96435 -20.19761,-39.5 -8.30599,-11.11538 -11.82067,-15.07654 -25.76268,-29.03545 -10.81107,-10.82418 -16.22904,-15.90934 -34.05655,-31.96455 -10.98377,-9.89183 -24.00917,-22.87386 -26.00221,-25.91562 -4.5271,-6.90922 -6.07695,-32.31043 -2.90336,-47.58438 1.94633,-9.36734 5.58669,-19.97403 8.32053,-24.24297 l 2.08581,-3.25703 0.0168,6.30259 c 0.0302,11.31277 4.21971,26.53423 11.15941,40.54519 3.62067,7.30997 12.26746,21.51965 13.7842,22.65222 0.36828,0.275 1.76511,2.075 3.10406,4 7.28131,10.46829 26.90348,30.46127 54.46918,55.49854 26.42416,24.00044 38.46075,37.13901 48.98628,53.4711 14.51617,22.52423 20.35435,41.0526 19.25006,61.09306 l -0.53994,9.79869 5.37605,2.63025 C 515.42196,484.82131 521,493.08516 521,501.86602 c 0,1.72369 0.25333,3.13398 0.56295,3.13398 0.30962,0 3.06276,-1.22404 6.11808,-2.72008 6.46425,-3.16523 18.36937,-14.49822 21.33336,-20.30813 1.11444,-2.18449 2.30594,-3.97179 2.64778,-3.97179 0.34183,0 0.35804,7.0875 0.036,15.75 -0.63954,17.20392 -2.33727,25.75084 -7.89581,39.75 -3.12279,7.86473 -4.44153,10.53284 -9.63806,19.5 -3.02491,5.21982 -2.61769,4.65411 -9.19652,12.77576 -5.28728,6.52721 -16.37789,16.2779 -21.32889,18.75203 -2.75992,1.37919 -2.83852,1.35094 -2.22296,-0.79902 1.46269,-5.1088 1.80731,-15.78736 0.65835,-20.40035 -1.81023,-7.26799 -5.89712,-14.96566 -9.73447,-18.3349 -9.46791,-8.31293 -24.86078,-12.71888 -47.7326,-13.66264 l -15.40194,-0.63553 3.3191,-6.09767 c 4.08343,-7.50186 7.47685,-17.72631 7.47186,-22.51284 -0.005,-4.74076 -3.15228,-9.70864 -7.21561,-11.38939 -7.68875,-3.18036 -13.59761,-3.8823 -32.57925,-3.87022 -18.7196,0.0119 -27.92478,0.75431 -46.7014,3.76653 -8.57753,1.37604 -11.08552,1.93806 -26.75,5.99439 -6.82244,1.76668 -9.22812,3.43117 -3.80966,2.63591 3.93318,-0.57726 25.93552,1.57577 34.05966,3.3329 11.91049,2.57607 11.12123,1.72633 7.84359,8.44461 -5.63448,11.54918 -8.86275,23.48389 -8.93728,33.04057 -0.0503,6.44675 0.35575,9.43018 1.52662,11.21715 1.78962,2.73132 5.55539,4.74459 8.86412,4.73897 2.55847,-0.004 8.42176,-3.36925 10.95295,-6.28583 2.21104,-2.54769 2.19151,-1.77193 -0.199,7.90219 -2.40677,9.73995 -3.5331,21.68683 -2.61918,27.78131 0.55561,3.70508 1.39156,5.131 4.30977,7.35138 3.42154,2.60334 4.18741,2.75224 13.93944,2.71008 5.67543,-0.0245 10.31897,0.26775 10.31897,0.64951 0,1.8067 -7.7408,11.95622 -12.76782,16.7408 -6.5483,6.2325 -10.29398,9.14885 -15.48218,12.05428 -2.0625,1.15501 -5.2125,2.91966 -7,3.92143 -4.46442,2.50202 -18.48743,8.27928 -22.75,9.37264 -12.55594,3.22064 -24,4.8604 -24,3.43884 z M 443,465.52734 C 443,464.26372 437.28121,452.97716 434.62577,449 430.7056,443.12861 421.67319,433.67949 416,429.51491 411.79285,426.42652 400.0455,420 398.60724,420 c -1.59704,0 3.39624,15.15989 7.67256,23.29434 5.73366,10.9066 12.87021,17.32541 23.17308,20.84248 4.64249,1.5848 13.54712,2.4988 13.54712,1.39052 z m 174,170.35319 c -1.375,-1.12911 -3.80898,-3.2063 -5.40884,-4.61597 -1.59986,-1.40967 -10.1147,-8.3571 -18.92187,-15.43874 -16.0989,-12.94475 -22.15041,-16.94488 -30.91554,-20.43562 -2.61044,-1.03961 -4.74794,-2.22098 -4.75,-2.62527 -0.004,-0.69164 16.9843,-22.17682 23.50544,-29.72827 17.46663,-20.22626 43.09278,-45.24377 60.99081,-59.54224 2.75,-2.19693 5.225,-4.25852 5.5,-4.5813 1.31519,-1.54372 17.28215,-12.82282 29.54462,-20.87039 36.76807,-24.13002 74.09916,-38.24725 113.94059,-43.08809 4.94187,-0.60045 9.17937,-1.28588 9.41667,-1.52318 0.54381,-0.54381 -11.34765,-0.78735 -24.40188,-0.49976 -10.1388,0.22337 -29.28537,3.01972 -37.5,5.47688 -2.475,0.74032 -6.525,1.91921 -9,2.61976 -7.34222,2.07822 -18.13692,5.65322 -23.68701,7.84471 -11.03415,4.35688 -34.50459,15.82113 -39.46736,19.27801 -1.4599,1.01692 -2.94372,1.84894 -3.29737,1.84894 -1.11271,0 -23.07079,14.5875 -30.21442,20.07247 -13.49215,10.35944 -31.08338,26.79941 -37.05854,34.63323 -1.40481,1.84181 -2.73291,3.17002 -2.95134,2.95159 -0.94095,-0.94095 5.32009,-17.2089 11.40245,-29.62679 7.74351,-15.80935 23.29459,-39.40389 35.25758,-53.49384 15.62786,-18.40639 32.61896,-34.0956 49.51601,-45.722 10.94129,-7.5284 11.3794,-7.75501 9.22617,-4.77203 -9.11115,12.62214 -14.61204,22.84553 -15.40488,28.62994 -0.76604,5.58891 0.68363,7.32743 6.10998,7.32743 6.42679,0 13.96921,-5.09391 38.98333,-26.32806 2.70303,-2.29457 5.85303,-4.82086 7,-5.61398 1.14697,-0.79312 2.3104,-1.71503 2.5854,-2.0487 0.89192,-1.08221 16.39132,-11.71627 20.25,-13.89343 8.57999,-4.84102 10.54916,-5.81638 16.75,-8.29653 12.73486,-5.09356 20.41282,-7.15269 24.58123,-6.59238 2.61679,0.35175 2.71185,0.48272 0.91877,1.26591 -1.1,0.48046 -5.825,3.36926 -10.5,6.41956 -13.88634,9.06043 -21.07397,17.67243 -19.61178,23.49827 1.71997,6.8529 7.49999,7.21534 24.78884,1.55441 28.80649,-9.43217 39.1496,-11.3041 62.32294,-11.27946 17.95889,0.0191 26.6815,1.0441 41,4.81794 20.12682,5.30471 43.53858,15.99712 62.91837,28.7355 7.83235,5.14823 22.82408,17.10756 29.29871,23.37242 8.63781,8.35795 8.90436,7.91639 -3.21708,5.32934 -6.4667,-1.38017 -34.24818,-1.06225 -46.07593,0.52727 -33.69169,4.52779 -66.16154,14.80813 -83.09685,26.30943 l -6.17278,4.19213 -6.32722,-3.80247 c -13.43376,-8.07329 -27.9155,-12.14063 -45.9083,-12.89379 -12.16039,-0.50903 -26.64846,1.02509 -35.41892,3.75045 -21.915,6.80992 -35.41009,14.21913 -49.17877,27.00061 -4.40666,4.09072 -7.24239,7.14561 -15.80767,17.0294 -1.64254,1.89539 -7.82814,9.97116 -13.74577,17.94616 -5.91763,7.975 -11.09873,14.95162 -11.51356,15.5036 -10.66637,14.19293 -32.08567,51.25626 -45.50838,78.7464 -3.42402,7.0125 -6.68007,12.73503 -7.23567,12.71673 -0.5556,-0.0183 -2.13518,-0.95709 -3.51018,-2.0862 z M 466.49005,350.2327 c -3.85547,-3.70299 -12.18047,-11.4354 -18.5,-17.18315 -18.134,-16.49326 -40.94873,-39.81468 -47.49475,-48.54955 -3.29742,-4.4 -6.3328,-8.15 -6.7453,-8.33333 -1.47933,-0.65748 -0.68253,-3.81209 3.28669,-13.01238 4.9136,-11.38927 8.40167,-25.09165 10.03073,-39.40429 1.64448,-14.44802 0.0453,-29.15554 -4.95405,-45.56171 -1.44522,-4.74274 -8.50305,-18.43672 -11.24491,-21.81798 -5.029,-6.20177 -14.09212,-14.34928 -19.10223,-17.17242 C 362.38372,133.91096 347.65744,130 337.13262,130 c -8.17333,0 -21.35988,3.19072 -29.13927,7.05076 -6.53233,3.24128 -16.34546,10.45932 -20.37072,14.98368 -7.81922,8.78875 -14.92772,21.20385 -18.22713,31.83394 -1.9856,6.39725 -4.3825,22.44821 -4.3896,29.39519 -0.003,3.16996 -0.43465,6.54496 -0.95867,7.5 -1.02053,1.85993 -4.09647,11.18553 -5.85015,17.73643 -4.33623,16.19805 -5.35807,23.85303 -6.06265,45.41754 L 251.5,303.33507 239.3596,294.1926 C 232.68238,289.16424 224.48111,282.00135 221.13456,278.27507 213.59231,269.87701 209.54683,262.05996 197.18627,232 182.81771,197.05673 182.4868,196.35747 181.60919,199.08278 c -0.25101,0.77947 -2.33264,7.49222 -4.62584,14.91722 -2.2932,7.425 -5.22428,16.65 -6.5135,20.5 -10.94646,32.6893 -12.46798,39.82157 -12.46903,58.45 -4.9e-4,8.65756 -0.36368,14.06918 -0.90603,13.5 -0.49786,-0.5225 -3.17521,-5.45 -5.94965,-10.95 -5.13076,-10.17112 -10.40946,-24.58399 -12.16756,-33.2221 -1.86427,-9.15978 -3.93857,-29.84597 -3.93857,-39.2779 0,-13.90196 2.67681,-35.26137 5.89013,-47 0.52695,-1.925 1.37206,-5.075 1.87803,-7 2.56516,-9.75947 10.98688,-28.26291 17.97815,-39.5 7.51805,-12.08377 27.07697,-34.074793 38.73162,-43.547801 15.62303,-12.698539 32.89067,-22.951979 50.50969,-29.992412 13.37611,-5.344999 30.09844,-9.508696 49.89951,-12.424492 13.98991,-2.060078 51.74145,-2.081476 66.64979,-0.03778 47.63196,6.529587 84.44734,23.838648 111.92407,52.622041 7.45312,7.807554 19.5,22.882544 19.5,24.401534 0,0.36859 0.91685,1.95777 2.03745,3.5315 3.9669,5.571 12.02216,22.96284 15.34742,33.13613 5.77803,17.67722 7.45866,25.90324 9.57879,46.88428 4.15734,41.14162 -14.14592,99.9883 -45.31036,145.677 -2.71989,3.9875 -5.21707,7.24221 -5.54928,7.2327 -0.33221,-0.01 -3.7585,-3.04702 -7.61397,-6.75 z"
       id="path74"
       inkscape:connector-curvature="0" />
  </g>
</svg>
